-
http:// www. Speed. Cd       
http:// www. Speed. Cd       the fast  and The Hottest Private Tracker on the net

Please Seed back to make the speed Faster!!!

and don't forget to visit      ...... www. Speed. Cd..........
-[pre][center][IMG]http://lookpic.com/c1/i2/3434/0cntqqqF.jpeg[/IMG]

[title=red]Yogi Bear (2010) BDRip 720P XViD AC3 DiVERSiTY[/title][/center]

[info]
[color=red][b]General[/b][/color]
Format                           : AVI
Format/Info                      : Audio Video Interleave
Format profile                   : OpenDML
Format settings                  : rec
File size                        : 1.66 GiB
Duration                         : 1h 20mn
Overall bit rate                 : 2 949 Kbps
Writing application              : AVI-Mux GUI 1.17.8.3, Feb 16 201019:42:50

[color=red][b]Video[/b][/color]
Format                           : MPEG-4 Visual
Format profile                   : Advanced Simple@L5
Format settings, BVOP            : 2
Format settings, QPel            : No
Format settings, GMC             : 3 warppoints
Format settings, Matrix          : Default (H.263)
Codec ID                         : XVID
Codec ID/Hint                    : XviD
Duration                         : 1h 20mn
Bit rate                         : 2 495 Kbps
Width                            : 1 280 pixels
Height                           : 720 pixels
Display aspect ratio             : 16:9
Frame rate                       : 23.976 fps
Color space                      : YUV
Chroma subsampling               : 4:2:0
Bit depth                        : 8 bits
Scan type                        : Progressive
Compression mode                 : Lossy
Bits/(Pixel*Frame)               : 0.113
Stream size                      : 1.40 GiB (85%)
Writing library                  : XviD 1.2.1 (UTC 2008-12-04)

[color=red][b]Audio[/b][/color]
Format                           : AC-3
Format/Info                      : Audio Coding 3
Mode extension                   : CM (complete main)
Codec ID                         : 2000
Duration                         : 1h 20mn
Bit rate mode                    : Constant
Bit rate                         : 448 Kbps
Channel(s)                       : 6 channels
Channel positions                : Front: L C R, Side: L R, LFE
Sampling rate                    : 48.0 KHz
Bit depth                        : 16 bits
Compression mode                 : Lossy
Stream size                      : 258 MiB (15%)
Alignment                        : Aligned on interleaves
Interleave, duration             : 64 ms (1.53 video frames)
Interleave, preload duration     : 192 ms

Subtitle                         : English, French, Spanish, Portuguese (soft subs)

[cast]
Dan Aykroyd                      : Yogi Bear (voice)
Justin Timberlake                : Boo Boo (voice)
Anna Faris                       : Rachel
Tom Cavanagh                     : Ranger Smith
T.J. Miller                      : Ranger Jones
Nathan Corddry                   : Chief of Staff

[plot]
A documentary filmmaker travels to Jellystone Park to shoot a
project and soon crosses paths with Yogi Bear, his sidekick
Boo-Boo, and Ranger Smith.

[note]

[color=red][b]Sample Included.

Enjoy!

Don't forget to thank the uploader.

Greets to:[/b][/color]

TOXiC, FLAWL3SS, DiGiTAL iNK, iNiTiALanIme, RDX, Zia, Merwais, Smelly,
Hibees,Toon, Tinners, 202122, PureDarkness, mgw012, Skrufern...

... and everyone who spends their own time and cash to share and make P2P great. :clap:

[screens]
[center][IMG]http://lookpic.com/c1/i2/3708/3dP1sBEm.png[/IMG]
[IMG]http://lookpic.com/c1/i2/1412/TjwoRppw.png[/IMG]
[IMG]http://lookpic.com/c1/i2/2586/kXbTNP5m.png[/IMG]
[IMG]http://lookpic.com/c1/i2/317/DlaubcIu.png[/IMG][/center][/pre]